<svg width="1144" height="235" viewBox="0 0 1144 235" fill="none" xmlns="http://www.w3.org/2000/svg">
<path d="M154.701 234.7C185.301 231.4 212.201 199.7 229.201 174L209.101 161.2C189.001 191.5 166.801 211.1 150.201 211C140.301 210.9 130.401 199.2 125.201 192.2C101.501 160 88.9011 107 92.8011 87.2001L72.1011 74.1001C59.0011 104.8 83.0011 174.9 106.201 206.4C118.001 222.5 134.801 236.8 154.701 234.7Z" fill="url(#paint0_linear)"/>
<path d="M150.301 211.1C140.401 211 130.501 199.3 125.301 192.3C101.601 160.1 89.0011 107.1 92.9011 87.3001L72.1011 74.1001C59.0011 104.8 83.0011 174.9 106.201 206.4C118.101 222.5 134.801 236.8 154.801 234.7L150.301 211.1Z" fill="url(#paint1_linear)"/>
<path d="M106 0.499897C81.3004 2.8999 55.6004 14.8999 35.8004 32.1999C-1.79961 65.0999 -9.69961 107.9 15.8004 141.3C46.9004 182.1 151.8 172.7 173.1 151.3C184.7 139.7 184.4 95.9999 184.3 90.9999C183.7 47.8999 172.6 27.8999 163.4 18.6999C148.2 3.4999 127.5 -1.7001 106 0.499897ZM106 24.3999C120.4 22.7999 136.4 25.3999 146.6 35.5999C164.1 53.0999 162.8 119 155.7 135.1C138.9 147.3 55.4004 154.1 34.7004 127C28.0004 118.1 9.50039 86.7999 51.5004 50.0999C69.5004 34.2999 88.9004 26.2999 106 24.3999Z" fill="url(#paint2_linear)"/>
<path d="M106 24.4C120.4 22.8 136.4 25.4 146.6 35.6C164.1 53.1 162.8 119 155.7 135.1L173.1 151.5C184.7 139.9 184.4 96.2 184.3 91.2C183.7 48.1 172.6 28.1 163.4 18.9C148.2 3.50002 127.5 -1.69998 106 0.500022V24.4Z" fill="url(#paint3_linear)"/>
<path d="M78.6006 88.7999L92.9006 87.1999C93.2006 85.7999 93.5006 84.4999 94.0006 83.3999C95.9006 79.3999 108.101 70.3999 134.401 61.8999C141.501 59.5999 148.901 57.5999 156.401 55.7999C164.201 53.9999 172.101 52.3999 179.901 51.2999C189.901 49.7999 199.601 48.8999 208.401 48.6999C235.101 48.0999 245.201 53.7999 247.001 57.2999C250.901 65.0999 244.401 98.8999 222.201 139.7C218.001 147.3 213.701 154.5 209.301 161.2L217.701 170.9L229.401 173.9C235.201 165.1 239.901 157 243.201 151C253.801 131.5 262.301 110.9 267.201 93.0999C272.901 72.1999 273.301 56.4999 268.301 46.5999C260.701 31.4999 240.401 24.0999 208.001 24.8999C196.601 25.1999 184.001 26.4999 171.201 28.5999C162.601 29.9999 153.901 31.8999 145.301 34.0999C139.101 35.6999 133.101 37.3999 127.201 39.2999C96.3006 49.2999 77.8006 60.9999 72.1006 74.0999L78.6006 88.7999Z" fill="url(#paint4_linear)"/>
<path d="M1093.1 67.4001C1094.4 64.2001 1096.3 61.4001 1098.6 59.1001C1100.9 56.7001 1103.7 54.9001 1106.9 53.6001C1110.1 52.3001 1113.6 51.6001 1117.4 51.6001C1121.2 51.6001 1124.7 52.3001 1127.9 53.6001C1131.1 54.9001 1133.9 56.8001 1136.2 59.1001C1138.5 61.5001 1140.4 64.2001 1141.7 67.4001C1143 70.6001 1143.7 74.1001 1143.7 77.9001C1143.7 81.7001 1143 85.2001 1141.7 88.4001C1140.4 91.6001 1138.5 94.4001 1136.2 96.7001C1133.9 99.1001 1131.1 100.9 1127.9 102.2C1124.7 103.5 1121.2 104.2 1117.4 104.2C1113.6 104.2 1110.1 103.5 1106.9 102.2C1103.7 100.9 1100.9 99.0001 1098.6 96.7001C1096.3 94.3001 1094.4 91.6001 1093.1 88.4001C1091.8 85.2001 1091.1 81.7001 1091.1 77.9001C1091.1 74.1001 1091.7 70.6001 1093.1 67.4001ZM1136 69.9001C1135 67.4001 1133.7 65.3001 1131.9 63.6001C1130.1 61.8001 1128 60.4001 1125.6 59.5001C1123.2 58.6001 1120.4 58.0001 1117.5 58.0001C1114.6 58.0001 1111.9 58.5001 1109.5 59.5001C1107 60.5001 1104.9 61.9001 1103.2 63.6001C1101.4 65.4001 1100.1 67.5001 1099.1 69.9001C1098.1 72.4001 1097.6 75.0001 1097.6 77.9001C1097.6 80.8001 1098.1 83.5001 1099.1 85.9001C1100.1 88.4001 1101.4 90.5001 1103.2 92.2001C1105 94.0001 1107.1 95.3001 1109.5 96.3001C1112 97.3001 1114.6 97.8001 1117.5 97.8001C1120.5 97.8001 1123.2 97.3001 1125.6 96.3001C1128 95.3001 1130.2 94.0001 1131.9 92.2001C1133.7 90.4001 1135 88.3001 1136 85.9001C1137 83.4001 1137.5 80.8001 1137.5 77.9001C1137.4 75.0001 1137 72.3001 1136 69.9001ZM1108.2 64.2001H1119.5C1120.9 64.2001 1122.1 64.4001 1123.2 64.9001C1124.3 65.3001 1125.3 65.9001 1126.1 66.7001C1126.9 67.5001 1127.5 68.4001 1128 69.5001C1128.4 70.6001 1128.7 71.7001 1128.7 72.9001C1128.7 74.9001 1128.2 76.7001 1127.1 78.1001C1126 79.6001 1124.6 80.6001 1122.7 81.1001L1128.7 91.0001H1122.6L1117.1 81.6001L1117.3 81.5001H1113.3V91.0001H1108.2V64.2001ZM1122.1 70.3001C1121.4 69.6001 1120.4 69.2001 1119.3 69.2001H1113.3V76.5001H1119.3C1120.5 76.5001 1121.4 76.2001 1122.1 75.5001C1122.8 74.8001 1123.2 74.0001 1123.2 72.8001C1123.2 71.9001 1122.9 71.0001 1122.1 70.3001Z" fill="#6E549E"/>
<path d="M327.9 144.7V136V106.9H313.6V98L346.5 70.2H348.9V91H379.2V106.9H348.9V133.9V141.7C348.9 151.2 353.8 155.1 362.3 155.1C367.2 155.1 371.6 153.4 374.6 151.1L383.9 164.3C378.5 168.9 369.6 172.6 358.1 172.6C339.3 172.5 327.9 163 327.9 144.7Z" fill="#6E549E"/>
<path d="M911.1 90.9H931.6V98.4C936 93.5 943.4 89.3 953.2 89.3C963.4 89.3 969.7 93.4 974.3 99.3L961.2 111.5C957.9 108.6 954.7 107 949.6 107C939.8 107 932 114.8 932 127.7V170.8H911.1V90.9Z" fill="#6E549E"/>
<path d="M978.6 197.1L988.6 183C991.7 185.2 996 187 1000.8 187C1007 187 1011.7 184.9 1019 170.9L978.7 90.8999H1003.9L1031.1 147.2L1059.4 90.8999H1083.4L1036.9 178.8C1027.5 197.1 1017.5 204.2 1001.1 204.2C991.5 204.3 983.1 201.3 978.6 197.1Z" fill="#6E549E"/>
<path d="M391.1 90.9H411.6V98.4C416 93.5 423.4 89.3 433.2 89.3C443.4 89.3 449.7 93.4 454.3 99.3L441.2 111.5C437.9 108.6 434.7 107 429.6 107C419.8 107 412 114.8 412 127.7V170.8H391.1V90.9Z" fill="#6E549E"/>
<path d="M461.5 139.6V126.4V90.8999H482.6V124.3V135.9C482.6 147.8 490.4 154.2 502.6 154.2C515.9 154.2 522.9 145.9 522.9 133.1V90.8999H543.8V170.9H523.3V164.1C518 168.9 509.3 172.5 498.2 172.5C475.5 172.5 461.5 161.1 461.5 139.6Z" fill="#6E549E"/>
<path d="M555.4 131.2C555.4 107.5 574.8 89.3999 602.1 89.3999C629 89.3999 645.9 105.9 645.9 128.2C645.9 131.4 645.5 134.4 645.2 135.8H577.8C578.3 140.6 580.5 144.7 583.8 148.2C588.3 153 595.1 155.8 603.2 155.8C613.9 155.8 622.4 151.7 627.7 144L643.1 152.1C635.5 165.1 621.1 172.4 601.2 172.4C575 172.5 555.4 156.8 555.4 131.2ZM623.1 121.6C622.6 119.1 621.5 116.8 620.4 114.9C616.6 109.3 609.7 105.8 601.2 105.8C589.4 105.8 581.6 112.3 579.2 121.5H623.1V121.6Z" fill="#6E549E"/>
<path d="M656 155.8L670.5 145.3C676.3 152 682.5 155.6 689.7 155.6C695.9 155.6 699.5 152.9 699.5 149.1C699.5 144.8 695.7 142.4 683.5 138C666.4 131.6 658.6 124.3 658.6 113.2C658.6 99.7999 671.3 89.3999 689.8 89.3999C704.9 89.3999 715.6 96.3999 721 103.9L707.6 114.4C703.1 109.2 696.3 105.7 690 105.7C684.2 105.7 680.4 108.4 680.4 111.9C680.4 115.6 684.4 118.3 698 123C714.9 128.7 722.1 137 722.1 148C722.1 163.1 707.8 172.6 690.9 172.6C674.7 172.5 662.3 165.4 656 155.8Z" fill="#6E549E"/>
<path d="M743 144.7V136V106.9H728.7V98L761.6 70.2H764V91H794.3V106.9H764V133.9V141.7C764 151.2 768.9 155.1 777.4 155.1C782.3 155.1 786.7 153.4 789.7 151.1L799 164.3C793.6 168.9 784.7 172.6 773.2 172.6C754.4 172.5 743 163 743 144.7Z" fill="#6E549E"/>
<path d="M801.2 131.3C801.2 105.9 823.2 89.3 851.5 89.3C878.7 89.3 898.7 105.7 898.7 130.3C898.7 155.7 876.7 172.4 848.4 172.4C821.2 172.5 801.2 156 801.2 131.3ZM849.9 154.5C865.5 154.5 875.7 144.5 875.7 131C875.7 117.3 865.5 107.2 849.9 107.2C834.6 107.2 824.3 117.4 824.3 131C824.3 144.5 834.6 154.5 849.9 154.5Z" fill="#6E549E"/>
<defs>
<linearGradient id="paint0_linear" x1="87.3228" y1="240.177" x2="251.823" y2="-61.3226" gradientUnits="userSpaceOnUse">
<stop stop-color="#624796"/>
<stop offset="1" stop-color="#805FA4"/>
</linearGradient>
<linearGradient id="paint1_linear" x1="95.6906" y1="117.179" x2="118.693" y2="195.186" gradientUnits="userSpaceOnUse">
<stop stop-color="#3C2C84" stop-opacity="0"/>
<stop offset="0.4793" stop-color="#3C2C84"/>
<stop offset="1" stop-color="#3C2C84" stop-opacity="0"/>
</linearGradient>
<linearGradient id="paint2_linear" x1="58.0422" y1="180.577" x2="143.167" y2="-1.5505" gradientUnits="userSpaceOnUse">
<stop stop-color="#624796"/>
<stop offset="1" stop-color="#805FA4"/>
</linearGradient>
<linearGradient id="paint3_linear" x1="115.684" y1="40.7486" x2="172.532" y2="88.4503" gradientUnits="userSpaceOnUse">
<stop stop-color="#3C2C84" stop-opacity="0"/>
<stop offset="0.5502" stop-color="#3C2C84"/>
<stop offset="1" stop-color="#3C2C84" stop-opacity="0"/>
</linearGradient>
<linearGradient id="paint4_linear" x1="87.7653" y1="240.419" x2="252.265" y2="-61.0811" gradientUnits="userSpaceOnUse">
<stop stop-color="#624796"/>
<stop offset="1" stop-color="#805FA4"/>
</linearGradient>
</defs>
</svg>
